<?xml version="1.0" standalone="no"?>
<!DOCTYPE svg PUBLIC "-//W3C//DTD SVG 20010904//EN"
 "http://www.w3.org/TR/2001/REC-SVG-20010904/DTD/svg10.dtd">
<svg version="1.0" xmlns="http://www.w3.org/2000/svg"
 width="1024.000000pt" height="1024.000000pt" viewBox="0 0 1024.000000 1024.000000"
 preserveAspectRatio="xMidYMid meet">

<g transform="translate(0.000000,1024.000000) scale(0.100000,-0.100000)"
fill="#000000" stroke="none">
<path d="M5695 8163 c-568 -46 -999 -212 -1265 -489 -183 -191 -294 -427 -350
-744 -17 -100 -40 -300 -40 -352 0 -17 -24 -18 -355 -18 l-355 0 0 -515 0
-515 -320 0 -320 0 0 -570 0 -570 -300 0 -300 0 0 -775 0 -775 1085 0 1086 0
260 528 c143 290 337 684 432 876 l172 349 130 -6 c204 -8 372 -60 525 -162
95 -63 211 -188 249 -267 39 -82 28 -42 377 -1377 30 -116 61 -212 71 -224 27
-30 92 -57 140 -57 71 0 443 94 515 131 46 24 94 82 102 124 5 25 -18 105
-108 366 -195 570 -325 966 -358 1087 -52 194 -44 343 27 499 48 104 76 140
242 314 159 168 214 242 286 384 124 249 176 527 164 885 -14 411 -82 713
-227 1005 -186 375 -473 643 -826 773 -205 76 -503 115 -739 95z m-23 -893
c122 -37 248 -141 302 -248 149 -294 -18 -684 -325 -757 -186 -43 -362 8 -499
145 -36 36 -77 88 -92 116 -104 194 -63 451 96 609 135 133 346 188 518 135z
m-1617 -1197 c48 -349 151 -659 287 -860 71 -106 187 -242 246 -288 28 -22 50
-43 49 -46 -1 -3 -56 -114 -122 -247 l-119 -242 -653 0 -653 0 0 355 0 355
331 0 330 0 -3 510 -3 510 152 0 152 0 6 -47z m104 -2120 c0 -5 -76 -159 -167
-343 l-167 -335 -657 -3 -658 -2 0 345 0 345 825 0 c454 0 825 -3 824 -7z"/>
</g>
</svg>
